<svg width="15" height="9" viewBox="0 0 15 9" fill="none" xmlns="http://www.w3.org/2000/svg">
<path d="M7.95258 8.27487L14.5901 1.30862C14.7009 1.19239 14.7627 1.03796 14.7627 0.877374C14.7627 0.716785 14.7009 0.56236 14.5901 0.446124L14.5826 0.438623C14.5289 0.38208 14.4642 0.337055 14.3925 0.306289C14.3209 0.275521 14.2437 0.259655 14.1657 0.259655C14.0877 0.259655 14.0105 0.275521 13.9389 0.306289C13.8672 0.337055 13.8025 0.38208 13.7488 0.438623L7.49883 6.99862L1.25133 0.438623C1.19761 0.38208 1.13295 0.337055 1.06129 0.306289C0.989618 0.275521 0.912443 0.259655 0.834452 0.259655C0.756459 0.259655 0.679284 0.275521 0.607617 0.306289C0.535951 0.337055 0.471292 0.38208 0.417576 0.438623L0.410076 0.446124C0.29927 0.56236 0.237455 0.716785 0.237455 0.877374C0.237455 1.03796 0.29927 1.19239 0.410076 1.30862L7.04758 8.27487C7.10595 8.33614 7.17615 8.38491 7.25393 8.41824C7.33172 8.45157 7.41546 8.46875 7.50008 8.46875C7.5847 8.46875 7.66844 8.45157 7.74622 8.41824C7.824 8.38491 7.8942 8.33614 7.95258 8.27487Z" fill="#3F3F3F"/>
</svg>
