<svg width="21" height="20" viewBox="0 0 21 20" fill="none" xmlns="http://www.w3.org/2000/svg">
<path d="M10.0474 6.72513L3.40992 13.6914C3.29912 13.8076 3.2373 13.962 3.2373 14.1226C3.2373 14.2832 3.29912 14.4376 3.40992 14.5539L3.41742 14.5614C3.47114 14.6179 3.5358 14.6629 3.60746 14.6937C3.67913 14.7245 3.75631 14.7403 3.8343 14.7403C3.91229 14.7403 3.98947 14.7245 4.06113 14.6937C4.1328 14.6629 4.19746 14.6179 4.25117 14.5614L10.5012 8.00138L16.7487 14.5614C16.8024 14.6179 16.867 14.6629 16.9387 14.6937C17.0104 14.7245 17.0876 14.7403 17.1655 14.7403C17.2435 14.7403 17.3207 14.7245 17.3924 14.6937C17.464 14.6629 17.5287 14.6179 17.5824 14.5614L17.5899 14.5539C17.7007 14.4376 17.7625 14.2832 17.7625 14.1226C17.7625 13.962 17.7007 13.8076 17.5899 13.6914L10.9524 6.72513C10.8941 6.66386 10.8238 6.61509 10.7461 6.58176C10.6683 6.54843 10.5845 6.53125 10.4999 6.53125C10.4153 6.53125 10.3316 6.54843 10.2538 6.58176C10.176 6.61509 10.1058 6.66386 10.0474 6.72513Z" fill="#3F3F3F"/>
</svg>
