<svg width="23" height="23" viewBox="0 0 18 18" fill="none" xmlns="http://www.w3.org/2000/svg">
<path d="M17.061 15.4611C16.5253 14.9835 16.0563 14.436 15.6666 13.8333C15.2411 13.0014 14.9861 12.0929 14.9166 11.1611V8.41664C14.9202 6.95309 14.3893 5.53857 13.4236 4.43885C12.4579 3.33912 11.1239 2.6299 9.67211 2.44442V1.72775C9.67211 1.53105 9.59397 1.3424 9.45488 1.20331C9.31579 1.06422 9.12715 0.986084 8.93045 0.986084C8.73374 0.986084 8.5451 1.06422 8.40601 1.20331C8.26692 1.3424 8.18878 1.53105 8.18878 1.72775V2.45553C6.75003 2.65438 5.4321 3.36789 4.47907 4.46392C3.52605 5.55995 3.00252 6.96422 3.00545 8.41664V11.1611C2.93587 12.0929 2.68088 13.0014 2.25545 13.8333C1.8726 14.4346 1.41111 14.9821 0.883225 15.4611C0.823965 15.5131 0.77647 15.5772 0.743901 15.6491C0.711332 15.7209 0.694436 15.7989 0.694336 15.8778V16.6333C0.694336 16.7807 0.752867 16.922 0.857054 17.0261C0.961241 17.1303 1.10255 17.1889 1.24989 17.1889H16.6943C16.8417 17.1889 16.983 17.1303 17.0872 17.0261C17.1914 16.922 17.2499 16.7807 17.2499 16.6333V15.8778C17.2498 15.7989 17.2329 15.7209 17.2003 15.6491C17.1678 15.5772 17.1203 15.5131 17.061 15.4611ZM1.84989 16.0778C2.36679 15.5784 2.82189 15.0189 3.20545 14.4111C3.74134 13.4063 4.05402 12.2978 4.12211 11.1611V8.41664C4.10008 7.76555 4.20929 7.11668 4.44325 6.50868C4.67721 5.90067 5.03112 5.34596 5.48392 4.87758C5.93672 4.40921 6.47914 4.03673 7.07888 3.78235C7.67863 3.52796 8.32343 3.39687 8.97489 3.39687C9.62636 3.39687 10.2712 3.52796 10.8709 3.78235C11.4706 4.03673 12.0131 4.40921 12.4659 4.87758C12.9187 5.34596 13.2726 5.90067 13.5065 6.50868C13.7405 7.11668 13.8497 7.76555 13.8277 8.41664V11.1611C13.8958 12.2978 14.2084 13.4063 14.7443 14.4111C15.1279 15.0189 15.583 15.5784 16.0999 16.0778H1.84989Z" fill="#2B2B2B"/>
</svg>
