<svg
    width="21"
    height="20"
    viewBox="0 0 21 20"
    fill="none"
    xmlns="http://www.w3.org/2000/svg"
  >
    <path
      d="M10.5 20C9.15039 20 7.83984 19.7363 6.60742 19.2148C5.41602 18.7109 4.34766 17.9883 3.42969 17.0703C2.51172 16.1523 1.78906 15.084 1.28516 13.8926C0.763672 12.6602 0.5 11.3496 0.5 10C0.5 9.61133 0.814453 9.29688 1.20313 9.29688C1.5918 9.29688 1.90625 9.61133 1.90625 10C1.90625 11.1602 2.13281 12.2852 2.58203 13.3457C3.01563 14.3691 3.63477 15.2891 4.42383 16.0781C5.21289 16.8672 6.13281 17.4883 7.15625 17.9199C8.21484 18.3672 9.33984 18.5938 10.5 18.5938C11.6602 18.5938 12.7852 18.3672 13.8457 17.918C14.8691 17.4844 15.7891 16.8652 16.5781 16.0762C17.3672 15.2871 17.9883 14.3672 18.4199 13.3438C18.8672 12.2852 19.0938 11.1602 19.0938 10C19.0938 8.83984 18.8672 7.71484 18.418 6.6543C17.9858 5.63332 17.3604 4.70549 16.5762 3.92188C15.7934 3.13656 14.8654 2.51101 13.8438 2.08008C12.7852 1.63281 11.6602 1.40625 10.5 1.40625C10.1113 1.40625 9.79688 1.0918 9.79688 0.703125C9.79688 0.314453 10.1113 0 10.5 0C11.8496 0 13.1602 0.263672 14.3926 0.785156C15.584 1.28906 16.6523 2.01172 17.5703 2.92969C18.4883 3.84766 19.209 4.91797 19.7129 6.10742C20.2344 7.33984 20.498 8.65039 20.498 10C20.498 11.3496 20.2344 12.6602 19.7129 13.8926C19.2109 15.084 18.4883 16.1523 17.5703 17.0703C16.6523 17.9883 15.582 18.709 14.3926 19.2129C13.1602 19.7363 11.8496 20 10.5 20Z"
      fill="black"
      fillOpacity="0.85"
    />
  </svg>