<svg width="56" height="54" viewBox="0 0 56 54" fill="none" xmlns="http://www.w3.org/2000/svg">
<path fill-rule="evenodd" clip-rule="evenodd" d="M35.5489 5.48533L35.5457 5.47931C33.2287 1.11542 27.9731 -0.48927 23.8276 1.9474C22.3845 2.76006 21.228 4.01279 20.4669 5.4572L1.46109 40.5789L1.42883 40.6619C-0.380325 45.3141 1.77097 50.6524 6.18385 52.5455L6.19811 52.5517L6.21251 52.5574C7.07406 52.902 8.00432 53.1285 8.9479 53.1894L8.98715 53.192H46.9958L47.0299 53.1901C49.3146 53.0616 51.4191 51.9987 52.9677 50.2091L52.9693 50.2073C54.5239 48.4044 55.3225 46.0512 55.1999 43.6282L55.1992 43.6158C55.1373 42.5688 54.9173 41.5721 54.4508 40.4039L54.4201 40.3271L35.5489 5.48533ZM33.2914 6.83949C31.6704 3.78119 27.9713 2.65541 25.0725 4.36555L25.0605 4.37263L25.0483 4.37945C24.0639 4.93152 23.257 5.79826 22.7247 6.81075L22.7208 6.8182L3.79345 41.7949C2.60132 44.9824 4.07243 48.6576 7.13892 49.9825C7.76391 50.2308 8.4217 50.3889 9.0677 50.4349H46.9257C48.5144 50.3367 49.9726 49.5987 51.0594 48.3436C52.1466 47.0828 52.6954 45.455 52.6123 43.7822C52.5712 43.0971 52.4349 42.4256 52.095 41.5567L33.2914 6.83949Z" fill="#FF2636"/>
<path fill-rule="evenodd" clip-rule="evenodd" d="M27.994 17.5995C26.0659 17.5995 24.4179 19.2465 24.4179 21.3548V29.0835C24.4179 31.1658 26.0436 32.8689 27.994 32.8689C29.9636 32.8689 31.5442 31.1454 31.5442 29.0835V21.3548C31.5442 19.2668 29.9415 17.5995 27.994 17.5995ZM27.994 20.3566C27.4345 20.3566 27.0096 20.835 27.0096 21.3548V29.0835C27.0096 29.6239 27.4568 30.1119 27.994 30.1119C28.512 30.1119 28.9525 29.6444 28.9525 29.0835V21.3548C28.9525 20.8148 28.5341 20.3566 27.994 20.3566Z" fill="#FF2636"/>
<path fill-rule="evenodd" clip-rule="evenodd" d="M27.994 34.6441C26.0446 34.6441 24.4179 36.3435 24.4179 38.4295C24.4179 40.5101 26.0446 42.2122 27.994 42.2122C29.973 42.2122 31.5442 40.4784 31.5442 38.3995C31.5442 36.3189 29.9434 34.6441 27.994 34.6441ZM27.994 37.4012C27.4559 37.4012 27.0096 37.8874 27.0096 38.4295C27.0096 38.9662 27.4559 39.4551 27.994 39.4551C28.5025 39.4551 28.9525 38.9978 28.9525 38.3995C28.9525 37.8628 28.5321 37.4012 27.994 37.4012Z" fill="#FF2636"/>
</svg>
