<svg width="50" height="50" viewBox="0 0 50 50" fill="none" xmlns="http://www.w3.org/2000/svg">
<rect opacity="0.1" x="0.5" width="48.743" height="50" rx="20" fill="#D66B6B"/>
<path d="M23.7695 31.6308C23.713 31.5743 23.4712 31.3609 23.2724 31.1622C22.0216 29.9971 19.9744 26.9576 19.3495 25.3668C19.2491 25.1252 19.0366 24.5144 19.0229 24.188C19.0229 23.8753 19.0931 23.5772 19.2355 23.2927C19.4343 22.9381 19.7473 22.6537 20.1167 22.4978C20.3731 22.3975 21.1403 22.2416 21.154 22.2416C21.9933 22.0857 23.3572 22 24.8643 22C26.3003 22 27.6085 22.0857 28.4606 22.2133C28.4742 22.228 29.4276 22.3838 29.7542 22.5543C30.3508 22.867 30.7213 23.4778 30.7213 24.1315V24.188C30.7066 24.6137 30.3362 25.509 30.3226 25.509C29.6967 27.0141 27.7499 29.9834 26.4563 31.1768C26.4563 31.1768 26.1238 31.5129 25.9162 31.659C25.6179 31.887 25.2484 32 24.8789 32C24.4666 32 24.0825 31.8724 23.7695 31.6308Z" fill="#FF2636"/>
</svg>
