<svg width="21" height="21" viewBox="0 0 21 21" fill="none" xmlns="http://www.w3.org/2000/svg">
<path d="M15.362 3.48676L17.049 1.79876C17.4007 1.44708 17.8777 1.24951 18.375 1.24951C18.8723 1.24951 19.3493 1.44708 19.701 1.79876C20.0527 2.15044 20.2502 2.62741 20.2502 3.12476C20.2502 3.62211 20.0527 4.09908 19.701 4.45076L9.082 15.0698C8.55332 15.5981 7.90137 15.9865 7.185 16.1998L4.5 16.9998L5.3 14.3148C5.51328 13.5984 5.90163 12.9464 6.43 12.4178L15.362 3.48676ZM15.362 3.48676L18 6.12476M16.5 12.9998V17.7498C16.5 18.3465 16.2629 18.9188 15.841 19.3407C15.419 19.7627 14.8467 19.9998 14.25 19.9998H3.75C3.15326 19.9998 2.58097 19.7627 2.15901 19.3407C1.73705 18.9188 1.5 18.3465 1.5 17.7498V7.24976C1.5 6.65302 1.73705 6.08073 2.15901 5.65877C2.58097 5.23681 3.15326 4.99976 3.75 4.99976H8.5" stroke="#A1A1A1" stroke-width="1.5" stroke-linecap="round" stroke-linejoin="round"/>
</svg>
