<svg width="20" height="20" viewBox="0 0 20 20" fill="none" xmlns="http://www.w3.org/2000/svg">
<path d="M4.1665 2.5H9.1665C9.82955 2.5 10.4654 2.76339 10.9343 3.23223C11.4031 3.70107 11.6665 4.33696 11.6665 5V8.33333H10.8332V5C10.8332 4.55797 10.6576 4.13405 10.345 3.82149C10.0325 3.50893 9.60853 3.33333 9.1665 3.33333H4.1665C3.72448 3.33333 3.30055 3.50893 2.98799 3.82149C2.67543 4.13405 2.49984 4.55797 2.49984 5V15.8333C2.49984 16.2754 2.67543 16.6993 2.98799 17.0118C3.30055 17.3244 3.72448 17.5 4.1665 17.5H9.1665C9.60853 17.5 10.0325 17.3244 10.345 17.0118C10.6576 16.6993 10.8332 16.2754 10.8332 15.8333V12.5H11.6665V15.8333C11.6665 16.4964 11.4031 17.1323 10.9343 17.6011C10.4654 18.0699 9.82955 18.3333 9.1665 18.3333H4.1665C3.50346 18.3333 2.86758 18.0699 2.39874 17.6011C1.9299 17.1323 1.6665 16.4964 1.6665 15.8333V5C1.6665 4.33696 1.9299 3.70107 2.39874 3.23223C2.86758 2.76339 3.50346 2.5 4.1665 2.5ZM6.6665 10H16.0415L13.3332 7.29167L13.8832 6.66667L17.6332 10.4167L13.8832 14.1667L13.3332 13.5417L16.0415 10.8333H6.6665V10Z" fill="#FF2636"/>
</svg>
