<svg width="16" height="12" viewBox="0 0 14 9" fill="none" xmlns="http://www.w3.org/2000/svg">
<path d="M5.21914 6.77079C4.93914 6.91182 4.89915 7.23534 5.12915 7.42613L5.94914 8.10636C6.33914 8.42988 6.96914 8.42988 7.35914 8.10636L8.17914 7.42613C8.40914 7.23534 8.35915 6.91182 8.08914 6.77079C7.21914 6.32284 6.09914 6.32284 5.21914 6.77079ZM4.02914 5.62602C4.79914 5.17273 5.71996 4.92923 6.66414 4.92923C7.60833 4.92923 8.52915 5.17273 9.29914 5.62602C9.65914 5.8417 10.1491 5.80852 10.4591 5.54307C10.8491 5.21954 10.8091 4.66375 10.3591 4.39829C9.27744 3.76281 7.98463 3.42152 6.65914 3.42152C5.33366 3.42152 4.04084 3.76281 2.95914 4.39829C2.50914 4.66375 2.45914 5.21954 2.85914 5.54307C3.0099 5.67079 3.21089 5.74941 3.42559 5.76464C3.64029 5.77986 3.85445 5.73067 4.02914 5.62602Z" fill="#F2FBF7"/>
<path d="M11.8691 3.46091C12.2091 3.69318 12.6991 3.69318 13.0091 3.43602L13.1291 3.33647C13.4791 3.04613 13.4391 2.57329 13.0491 2.30784C9.37914 -0.222275 4.02914 -0.238866 0.349144 2.25807C-0.0808557 2.54841 -0.120856 3.07932 0.269144 3.39454C0.589144 3.66829 1.10914 3.70147 1.45914 3.46091C4.46914 1.40363 8.85914 1.40363 11.8691 3.46091Z" fill="#F2FBF7"/>
</svg>
