<svg width="18" height="18" viewBox="0 0 18 18" fill="none" xmlns="http://www.w3.org/2000/svg">
<path d="M17.0001 8.33325H9.66678V0.999919C9.66678 0.823108 9.59654 0.653538 9.47152 0.528514C9.34649 0.40349 9.17692 0.333252 9.00011 0.333252C8.8233 0.333252 8.65373 0.40349 8.52871 0.528514C8.40368 0.653538 8.33345 0.823108 8.33345 0.999919V8.33325H1.00011C0.8233 8.33325 0.653731 8.40349 0.528707 8.52851C0.403683 8.65354 0.333445 8.82311 0.333445 8.99992C0.330155 9.08656 0.345476 9.1729 0.378375 9.25313C0.411274 9.33335 0.460986 9.40558 0.524162 9.46497C0.587339 9.52436 0.66251 9.56951 0.744612 9.59739C0.826713 9.62527 0.913837 9.63522 1.00011 9.62659H8.33345V16.9999C8.33345 17.1767 8.40368 17.3463 8.52871 17.4713C8.65373 17.5963 8.8233 17.6666 9.00011 17.6666C9.17692 17.6666 9.34649 17.5963 9.47152 17.4713C9.59654 17.3463 9.66678 17.1767 9.66678 16.9999V9.66658H17.0001C17.1769 9.66658 17.3465 9.59635 17.4715 9.47132C17.5965 9.3463 17.6668 9.17673 17.6668 8.99992C17.6668 8.82311 17.5965 8.65354 17.4715 8.52851C17.3465 8.40349 17.1769 8.33325 17.0001 8.33325Z" fill="white"/>
</svg>
