<svg width="51" height="40" viewBox="0 0 51 40" fill="none" xmlns="http://www.w3.org/2000/svg">
<path d="M25.5 31.2501V14.3751M25.5 14.3751L33 21.8751M25.5 14.3751L18 21.8751M12.375 38.7501C9.69861 38.753 7.10883 37.8016 5.07077 36.0668C3.03271 34.332 1.67991 31.9274 1.2553 29.2849C0.830687 26.6423 1.36209 23.935 2.75407 21.649C4.14606 19.3631 6.30743 17.6483 8.85003 16.8126C8.19678 13.4655 8.87192 9.99555 10.7325 7.13759C12.5931 4.27963 15.4929 2.25804 18.8181 1.50093C22.1432 0.743816 25.6324 1.31063 28.5469 3.08134C31.4614 4.85205 33.5723 7.68761 34.4325 10.9876C35.7626 10.555 37.187 10.5029 38.5451 10.8373C39.9031 11.1716 41.1406 11.8791 42.1178 12.8797C43.095 13.8802 43.7729 15.1341 44.0751 16.4997C44.3772 17.8653 44.2914 19.2881 43.8275 20.6076C45.8742 21.3893 47.5826 22.8628 48.6564 24.7724C49.7303 26.682 50.1018 28.9073 49.7066 31.0622C49.3114 33.2171 48.1743 35.1657 46.4927 36.57C44.811 37.9742 42.6909 38.7455 40.5 38.7501H12.375Z" stroke="#A1A1A1" stroke-width="1.5" stroke-linecap="round" stroke-linejoin="round"/>
</svg>
