<svg width="699" height="334" viewBox="0 0 699 334" fill="none" xmlns="http://www.w3.org/2000/svg">
<g clip-path="url(#clip0_5789_7120)">
<path d="M546.062 50.18H374.802V46.6504H297.147V50.18H125.181C122.108 50.18 119.162 51.4006 116.989 53.5733C114.816 55.746 113.596 58.6928 113.596 61.7654V296.271C113.596 299.344 114.816 302.29 116.989 304.463C119.162 306.636 122.108 307.856 125.181 307.856H546.062C549.135 307.856 552.082 306.636 554.254 304.463C556.427 302.29 557.648 299.344 557.648 296.271V61.7641C557.647 58.6917 556.427 55.7452 554.254 53.5728C552.081 51.4004 549.135 50.18 546.062 50.18Z" fill="#3F3D56"/>
<path d="M542.116 70.6528H129.128V303.62H542.116V70.6528Z" fill="#E6E6E6"/>
<path d="M524.742 82.9727H146.642V284.343H524.742V82.9727Z" fill="white"/>
<path d="M335.269 64.3C337.608 64.3 339.505 62.4035 339.505 60.064C339.505 57.7246 337.608 55.8281 335.269 55.8281C332.929 55.8281 331.033 57.7246 331.033 60.064C331.033 62.4035 332.929 64.3 335.269 64.3Z" fill="#32C87D"/>
<path d="M569.242 299.384H528.938V296.48C528.938 296.327 528.877 296.181 528.769 296.073C528.661 295.964 528.514 295.904 528.362 295.904H514.543C514.39 295.904 514.243 295.964 514.135 296.073C514.027 296.181 513.967 296.327 513.967 296.48V299.384H505.33V296.48C505.33 296.327 505.27 296.181 505.162 296.073C505.054 295.964 504.907 295.904 504.754 295.904H490.936C490.783 295.904 490.636 295.964 490.528 296.073C490.42 296.181 490.36 296.327 490.36 296.48V299.384H481.723V296.48C481.723 296.327 481.662 296.181 481.554 296.073C481.446 295.964 481.3 295.904 481.147 295.904H467.328C467.176 295.904 467.029 295.964 466.921 296.073C466.813 296.181 466.752 296.327 466.752 296.48V299.384H458.116V296.48C458.116 296.327 458.055 296.181 457.947 296.073C457.839 295.964 457.693 295.904 457.54 295.904H443.722C443.569 295.904 443.422 295.964 443.314 296.073C443.206 296.181 443.146 296.327 443.146 296.48V299.384H434.509V296.48C434.509 296.327 434.448 296.181 434.34 296.073C434.232 295.964 434.085 295.904 433.933 295.904H420.115C419.962 295.904 419.815 295.964 419.707 296.073C419.599 296.181 419.539 296.327 419.539 296.48V299.384H410.901V296.48C410.901 296.327 410.841 296.181 410.733 296.073C410.625 295.964 410.478 295.904 410.326 295.904H396.51C396.357 295.904 396.211 295.964 396.103 296.073C395.995 296.181 395.934 296.327 395.934 296.48V299.384H387.294V296.48C387.294 296.327 387.234 296.181 387.126 296.073C387.018 295.964 386.871 295.904 386.718 295.904H278.471C278.318 295.904 278.172 295.964 278.064 296.073C277.956 296.181 277.895 296.327 277.895 296.48V299.384H269.259V296.48C269.259 296.327 269.198 296.181 269.09 296.073C268.982 295.964 268.836 295.904 268.683 295.904H254.864C254.711 295.904 254.565 295.964 254.457 296.073C254.349 296.181 254.288 296.327 254.288 296.48V299.384H245.652V296.48C245.652 296.327 245.591 296.181 245.483 296.073C245.375 295.964 245.228 295.904 245.076 295.904H231.257C231.105 295.904 230.958 295.964 230.85 296.073C230.742 296.181 230.681 296.327 230.681 296.48V299.384H222.044V296.48C222.044 296.327 221.984 296.181 221.876 296.073C221.768 295.964 221.621 295.904 221.468 295.904H207.65C207.497 295.904 207.351 295.964 207.243 296.073C207.135 296.181 207.074 296.327 207.074 296.48V299.384H198.439V296.48C198.439 296.327 198.378 296.181 198.27 296.073C198.162 295.964 198.016 295.904 197.863 295.904H184.043C183.89 295.904 183.744 295.964 183.636 296.073C183.528 296.181 183.467 296.327 183.467 296.48V299.384H174.831V296.48C174.831 296.327 174.77 296.181 174.662 296.073C174.554 295.964 174.407 295.904 174.255 295.904H160.436C160.283 295.904 160.136 295.964 160.028 296.073C159.92 296.181 159.86 296.327 159.86 296.48V299.384H151.223V296.48C151.223 296.327 151.163 296.181 151.055 296.073C150.947 295.964 150.8 295.904 150.647 295.904H136.826C136.673 295.904 136.527 295.964 136.419 296.073C136.311 296.181 136.25 296.327 136.25 296.48V299.384H109.767C106.102 299.384 102.587 300.84 99.9952 303.432C97.4037 306.023 95.9478 309.538 95.9478 313.203V319.451C95.9478 323.116 97.4037 326.631 99.9952 329.223C102.587 331.814 106.102 333.27 109.767 333.27H569.242C572.907 333.27 576.422 331.814 579.014 329.223C581.605 326.631 583.061 323.117 583.061 319.452V313.204C583.061 309.539 581.605 306.024 579.014 303.432C576.422 300.841 572.907 299.385 569.242 299.385V299.384Z" fill="#3F3D56"/>
<path d="M419.291 97.0962H252.093V272.852H419.291V97.0962Z" fill="#E6E6E6"/>
<path d="M698.915 332.684H0.5V334H698.915V332.684Z" fill="#E6E6E6"/>
<path d="M631.086 286.694C640.55 296.849 641.039 311.774 641.039 311.774C641.039 311.774 626.185 310.235 616.722 300.081C607.259 289.926 606.77 275.001 606.77 275.001C606.77 275.001 621.623 276.54 631.086 286.694Z" fill="#32C87D"/>
<path d="M660.878 302.544C650.723 312.007 635.798 312.496 635.798 312.496C635.798 312.496 637.337 297.642 647.491 288.179C657.646 278.716 672.571 278.227 672.571 278.227C672.571 278.227 671.033 293.081 660.878 302.544Z" fill="#32C87D"/>
<path d="M658.353 332.683H621.004C620.287 332.683 619.585 332.482 618.978 332.102C618.37 331.722 617.882 331.178 617.569 330.534L609.437 313.818C609.153 313.236 609.022 312.591 609.056 311.944C609.09 311.297 609.288 310.669 609.632 310.12C609.976 309.571 610.453 309.118 611.02 308.804C611.587 308.491 612.225 308.327 612.873 308.327H666.485C667.133 308.327 667.771 308.491 668.337 308.804C668.904 309.118 669.382 309.571 669.726 310.12C670.069 310.669 670.267 311.297 670.302 311.944C670.336 312.591 670.205 313.236 669.921 313.818L661.789 330.534C661.476 331.179 660.988 331.722 660.38 332.102C659.773 332.482 659.07 332.684 658.354 332.684L658.353 332.683Z" fill="#E5E5E5"/>
<path d="M40.6259 286.694C50.0891 296.849 50.5782 311.774 50.5782 311.774C50.5782 311.774 35.7245 310.235 26.2613 300.081C16.7982 289.926 16.3091 275.001 16.3091 275.001C16.3091 275.001 31.1628 276.54 40.6259 286.694Z" fill="#E5E5E5"/>
<path d="M61.9678 332.683H24.6187C23.9021 332.683 23.1998 332.482 22.5923 332.102C21.9848 331.722 21.4965 331.178 21.1833 330.534L13.0517 313.818C12.7678 313.236 12.6367 312.591 12.6708 311.944C12.7049 311.297 12.9031 310.669 13.2468 310.12C13.5904 309.571 14.0681 309.118 14.635 308.804C15.2019 308.491 15.8393 308.327 16.4872 308.327H70.1C70.7479 308.327 71.3853 308.491 71.9521 308.804C72.519 309.118 72.9968 309.571 73.3404 310.12C73.684 310.669 73.8822 311.297 73.9164 311.944C73.9505 312.591 73.8194 313.236 73.5354 313.818L65.4039 330.534C65.0907 331.179 64.6024 331.722 63.9949 332.102C63.3873 332.482 62.6851 332.684 61.9685 332.684L61.9678 332.683Z" fill="#E5E5E5"/>
<path d="M355.866 146.85C368.138 146.85 378.087 136.901 378.087 124.629C378.087 112.356 368.138 102.408 355.866 102.408C343.594 102.408 333.645 112.356 333.645 124.629C333.645 136.901 343.594 146.85 355.866 146.85Z" fill="#A0616A"/>
<path d="M304.739 273.214L319.089 182.877C319.852 178.074 321.629 173.488 324.302 169.425C326.975 165.362 330.483 161.915 334.592 159.313C338.701 156.712 343.316 155.015 348.132 154.335C352.948 153.656 357.853 154.01 362.521 155.374C370.683 157.734 377.671 163.053 382.122 170.291C386.572 177.528 388.164 186.165 386.587 194.514L371.579 275.19L304.739 273.214Z" fill="#32C87D"/>
<path d="M362.001 289.378C363.111 288.645 364.046 287.677 364.742 286.544C365.438 285.41 365.876 284.138 366.027 282.816C366.177 281.495 366.036 280.157 365.614 278.895C365.191 277.634 364.497 276.481 363.581 275.517L378.415 246.792L361.709 248.574L350.184 275.58C348.673 277.228 347.818 279.373 347.78 281.608C347.742 283.844 348.524 286.016 349.979 287.714C351.433 289.413 353.459 290.52 355.674 290.826C357.889 291.133 360.139 290.618 362 289.378L362.001 289.378Z" fill="#A0616A"/>
<path d="M365.178 270.451C364.357 270.335 363.591 269.972 362.983 269.41L357.307 264.165C356.694 263.596 356.271 262.852 356.094 262.035C355.917 261.217 355.996 260.365 356.32 259.593L367.663 232.707L366.053 179.582C366.523 176.135 368.343 173.016 371.113 170.912C373.882 168.807 377.375 167.889 380.821 168.359C384.268 168.829 387.386 170.649 389.491 173.419C391.595 176.188 392.514 179.68 392.043 183.127L394.795 216.523C395.631 226.658 392.758 236.752 386.709 244.928L369.019 268.842C368.679 269.301 368.246 269.684 367.748 269.965C367.25 270.246 366.698 270.42 366.129 270.474C365.812 270.504 365.493 270.496 365.178 270.451Z" fill="#32C87D"/>
<path d="M227.903 112.522C228.145 113.83 228.671 115.069 229.443 116.151C230.216 117.234 231.217 118.134 232.375 118.788C233.533 119.442 234.82 119.834 236.146 119.937C237.472 120.039 238.805 119.85 240.05 119.382L260.719 144.242L265.59 128.163L245.216 107.021C244.286 104.988 242.645 103.366 240.601 102.46C238.558 101.555 236.253 101.429 234.123 102.106C231.993 102.782 230.184 104.216 229.039 106.135C227.893 108.054 227.488 110.326 227.903 112.522Z" fill="#A0616A"/>
<path d="M244.093 122.826C244.52 122.116 245.153 121.553 245.908 121.211L252.952 118.03C253.715 117.687 254.565 117.587 255.387 117.743C256.209 117.899 256.963 118.304 257.548 118.903L277.884 139.831L327.433 159.062C328.914 159.942 330.209 161.104 331.241 162.484C332.274 163.863 333.024 165.432 333.45 167.102C333.875 168.772 333.968 170.509 333.722 172.214C333.476 173.92 332.896 175.56 332.016 177.041C331.136 178.523 329.973 179.816 328.593 180.848C327.212 181.879 325.643 182.629 323.973 183.053C322.303 183.478 320.565 183.569 318.86 183.322C317.155 183.075 315.515 182.494 314.034 181.613L282.209 171.126C272.55 167.944 264.374 161.362 259.204 152.604L244.08 126.991C243.79 126.499 243.606 125.95 243.541 125.382C243.477 124.814 243.532 124.239 243.704 123.693C243.8 123.39 243.931 123.099 244.095 122.827L244.093 122.826Z" fill="#32C87D"/>
<path opacity="0.1" d="M373.89 201.68L372.985 230.631L356.319 259.595L370.235 227.32L373.89 201.68Z" fill="#3F3F3F"/>
<path d="M340.818 113.491C343.11 116.203 346.989 116.968 350.567 117.282C357.833 117.919 368.4 116.887 375.501 115.246C376.008 120.159 374.626 125.455 377.519 129.496C378.876 124.604 379.665 119.572 379.87 114.499C379.958 112.327 379.923 110.073 379.039 108.076C378.155 106.079 376.227 104.384 374.007 104.366C375.656 103.115 377.589 102.288 379.633 101.961L372.603 98.4277L374.408 96.574L361.68 95.7953L365.367 93.4532C359.818 92.6915 354.205 92.515 348.62 92.9266C346.026 93.1175 343.314 93.4829 341.213 94.9857C339.112 96.4885 337.897 99.475 339.202 101.682C337.569 101.95 336.031 102.63 334.734 103.659C333.438 104.688 332.425 106.031 331.793 107.56C330.856 109.935 330.941 112.574 331.23 115.105C331.71 119.153 332.651 123.132 334.035 126.967" fill="#2F2E41"/>
<path d="M435.811 57.8244L233.331 104.571C232.337 104.799 231.292 104.624 230.427 104.083C229.562 103.542 228.947 102.681 228.716 101.687L217.12 51.4601C216.892 50.4657 217.067 49.4214 217.608 48.5562C218.149 47.691 219.01 47.0756 220.004 46.8449L422.484 0.0987041C423.478 -0.129611 424.523 0.0457925 425.388 0.586434C426.253 1.12708 426.869 1.98881 427.099 2.98262L438.695 53.2093C438.923 54.2036 438.748 55.2479 438.207 56.1131C437.667 56.9783 436.805 57.5937 435.811 57.8244Z" fill="white"/>
<path d="M435.811 57.8244L233.331 104.571C232.337 104.799 231.292 104.624 230.427 104.083C229.562 103.542 228.947 102.681 228.716 101.687L217.12 51.4601C216.892 50.4657 217.067 49.4214 217.608 48.5562C218.149 47.691 219.01 47.0756 220.004 46.8449L422.484 0.0987041C423.478 -0.129611 424.523 0.0457925 425.388 0.586434C426.253 1.12708 426.869 1.98881 427.099 2.98262L438.695 53.2093C438.923 54.2036 438.748 55.2479 438.207 56.1131C437.667 56.9783 436.805 57.5937 435.811 57.8244ZM220.35 48.345C219.754 48.4834 219.237 48.8527 218.913 49.3719C218.588 49.8911 218.483 50.5178 218.62 51.1145L230.216 101.341C230.354 101.938 230.723 102.455 231.242 102.779C231.762 103.104 232.388 103.209 232.985 103.072L435.465 56.3255C436.061 56.1873 436.579 55.818 436.903 55.2988C437.228 54.7795 437.333 54.1528 437.195 53.5561L425.6 3.32879C425.461 2.73232 425.092 2.21508 424.573 1.89062C424.054 1.56616 423.427 1.461 422.83 1.59822L220.35 48.345Z" fill="#E6E6E6"/>
<path d="M290.609 48.1894C290.274 48.2659 289.958 48.4075 289.678 48.6063C289.399 48.805 289.161 49.0569 288.978 49.3475C288.796 49.6382 288.672 49.962 288.615 50.3003C288.558 50.6387 288.568 50.985 288.645 51.3196C288.721 51.6541 288.863 51.9702 289.062 52.2499C289.261 52.5296 289.513 52.7674 289.803 52.9497C290.094 53.132 290.418 53.2553 290.756 53.3124C291.095 53.3696 291.441 53.3595 291.775 53.2827L291.784 53.2807L411.794 25.5744C412.468 25.4176 413.052 24.9997 413.419 24.4124C413.785 23.8251 413.903 23.1164 413.747 22.4419C413.592 21.7675 413.175 21.1824 412.588 20.8151C412.001 20.4478 411.293 20.3284 410.618 20.483L290.609 48.1894Z" fill="#E6E6E6"/>
<path d="M294.136 63.464C293.802 63.5405 293.485 63.6822 293.206 63.8809C292.926 64.0796 292.688 64.3315 292.506 64.6222C292.323 64.9129 292.2 65.2366 292.143 65.575C292.085 65.9133 292.095 66.2597 292.172 66.5942C292.249 66.9287 292.39 67.2448 292.589 67.5245C292.788 67.8043 293.04 68.0421 293.331 68.2244C293.621 68.4067 293.945 68.5299 294.284 68.5871C294.622 68.6442 294.968 68.6341 295.303 68.5574L295.312 68.5554L346.952 56.6333C347.627 56.4784 348.213 56.0616 348.581 55.4747C348.949 54.8878 349.069 54.1787 348.914 53.5035C348.76 52.8282 348.343 52.242 347.756 51.8738C347.17 51.5055 346.461 51.3854 345.785 51.5399L345.776 51.5419L294.136 63.464Z" fill="#E6E6E6"/>
<path d="M257.801 82.0436C266.459 82.0436 273.477 75.0253 273.477 66.3677C273.477 57.7102 266.459 50.6919 257.801 50.6919C249.144 50.6919 242.125 57.7102 242.125 66.3677C242.125 75.0253 249.144 82.0436 257.801 82.0436Z" fill="#32C87D"/>
<path d="M257.36 75.4114C256.847 75.5307 256.309 75.4799 255.827 75.2667L255.797 75.2534L249.49 72.3899C249.197 72.2572 248.933 72.0681 248.713 71.8333C248.494 71.5986 248.322 71.3228 248.209 71.0218C248.096 70.7208 248.044 70.4005 248.055 70.0791C248.065 69.7578 248.14 69.4417 248.273 69.149C248.406 68.8564 248.595 68.5928 248.83 68.3734C249.065 68.154 249.341 67.9831 249.643 67.8705C249.944 67.7579 250.264 67.7057 250.585 67.717C250.907 67.7283 251.223 67.8029 251.515 67.9364L255.602 69.7971L261.336 57.198C261.605 56.6082 262.097 56.1491 262.704 55.9218C263.311 55.6945 263.983 55.7176 264.573 55.986L264.538 56.0683L264.575 55.9856C265.164 56.2548 265.623 56.7468 265.85 57.3537C266.077 57.9606 266.054 58.6329 265.786 59.2229L259.043 74.0441C258.886 74.3855 258.653 74.6864 258.362 74.9233C258.071 75.1602 257.729 75.3268 257.362 75.4102L257.36 75.4114Z" fill="white"/>
</g>
<defs>
<clipPath id="clip0_5789_7120">
<rect width="698.415" height="334" fill="white" transform="translate(0.5)"/>
</clipPath>
</defs>
</svg>
