<svg width="147" height="42" viewBox="0 0 147 42" fill="none" xmlns="http://www.w3.org/2000/svg">
<path fill-rule="evenodd" clip-rule="evenodd" d="M18.2881 1.20757C19.944 0.251774 21.9836 0.251773 23.6395 1.20757L36.713 8.75353C38.3708 9.71042 39.3923 11.4799 39.3923 13.3949V28.4801C39.3923 30.3951 38.3708 32.1646 36.713 33.1215L23.6395 40.6674C21.9836 41.6232 19.944 41.6232 18.2881 40.6674L5.21465 33.1215C3.55682 32.1646 2.5354 30.3951 2.5354 28.4801V13.3949C2.5354 11.4799 3.55682 9.71042 5.21465 8.75353L18.2881 1.20757ZM37.5457 21.8104C35.2911 21.8033 33.0311 20.8917 30.9356 19.5804C32.087 20.9036 33.2643 22.2236 34.3552 23.4304C35.5889 24.7953 36.7075 26.0104 37.5457 26.914V21.8104ZM37.4035 29.4697L37.3592 29.4224C37.1199 29.1672 36.7736 28.7969 36.3452 28.3356C35.4885 27.4132 34.3025 26.1266 32.9857 24.6698C30.3579 21.7626 27.1878 18.1545 25.0773 15.4091C22.577 12.1568 21.1723 10.2813 20.4206 9.26122C20.3127 9.11703 20.2152 8.98501 20.1284 8.86656L19.9365 8.97377C19.3865 9.28087 18.6494 9.69236 17.9009 10.1099C16.4117 10.9408 14.8576 11.8068 14.6672 11.9086C12.5211 13.0568 10.7056 12.7534 9.38248 11.9942C8.15245 11.2884 7.40157 10.226 7.13611 9.7775L6.1373 10.354C5.05114 10.9809 4.38194 12.1402 4.38194 13.3949V27.3245C5.36378 25.8326 7.35057 25.3479 8.91672 26.2527C9.43524 26.5522 9.84499 26.9679 10.1321 27.4479C11.2212 26.2789 13.0089 25.9711 14.4511 26.8043C15.6558 27.5002 16.2919 28.8031 16.1965 30.1041C16.849 30.0581 17.5219 30.1998 18.131 30.5517C19.255 31.2011 19.868 32.396 19.8286 33.6092C20.5138 33.5443 21.2251 33.6843 21.8666 34.0549C22.236 34.2683 22.5508 34.5401 22.8061 34.8518C22.8226 34.8666 22.8387 34.8821 22.8544 34.8984L25.3816 37.5197L28.319 35.8231L25.0076 32.088C24.6693 31.7063 24.7042 31.1224 25.0856 30.7838C25.4671 30.4452 26.0506 30.4801 26.389 30.8618L29.9512 34.8798L33.0031 33.1144L29.6137 29.604C29.2594 29.237 29.2695 28.6522 29.6362 28.2977C30.0029 27.9431 30.5874 27.9532 30.9417 28.3202L34.6613 32.1727L35.7904 31.521C36.5824 31.0638 37.1527 30.3236 37.4035 29.4697ZM23.7389 38.477L23.0522 38.8734L23.1237 38.7495C23.2395 38.5488 23.3328 38.3413 23.4043 38.13L23.7389 38.477ZM20.5514 39.5123L21.5246 37.8256C21.9631 37.0656 21.7029 36.0938 20.9433 35.655C20.1874 35.2183 19.2218 35.4742 18.7804 36.2258L17.6581 38.1708L19.2108 39.067C19.6298 39.3088 20.0863 39.4573 20.5514 39.5123ZM17.1842 35.2968C17.1811 35.3022 17.178 35.3075 17.1749 35.3128L16.0586 37.2475L13.3715 35.6965L15.0889 32.7199C15.5173 31.9776 16.4659 31.7233 17.2078 32.1519C17.9496 32.5804 18.2038 33.5297 17.7755 34.272L17.1842 35.2968ZM8.89284 33.1115L11.7719 34.7733L14.1361 30.6759C14.595 29.8806 14.3227 28.8636 13.5278 28.4044C12.7329 27.9452 11.7165 28.2177 11.2576 29.013L8.89284 33.1115ZM7.29561 32.1843L7.29334 32.1883L6.1373 31.521C5.58675 31.2032 5.14333 30.7487 4.83988 30.2142L5.87462 28.4209C6.30294 27.6786 7.25157 27.4242 7.99345 27.8528C8.73532 28.2814 8.98951 29.2306 8.56119 29.973L7.35249 32.0678C7.33054 32.1058 7.31161 32.1448 7.29561 32.1843ZM19.2846 2.63986C20.3696 2.01364 21.7058 2.01364 22.7907 2.63985L35.8642 10.1858C36.9504 10.8127 37.6196 11.972 37.6196 13.2267V19.7945C34.6346 19.7825 31.3542 17.7405 28.4154 15.1157C25.5132 12.5236 23.1334 9.53669 21.9767 7.99106C21.6915 7.60404 21.504 7.34502 21.3885 7.18388C21.3307 7.10315 21.2588 7.00093 21.2341 6.96579C20.964 6.57277 20.4393 6.44995 20.0231 6.68244C18.5191 7.52154 14.0418 10.0194 13.8704 10.1111C12.3235 10.9387 11.1845 10.6877 10.3749 10.2232C9.53544 9.7415 8.99105 8.98665 8.80964 8.68598L19.2846 2.63986Z" fill="#32C87D"/>
<path d="M51.908 31V8.6H56.068V27.48H67.78V31H51.908ZM78.504 31.224C76.7547 31.224 75.1973 30.8507 73.832 30.104C72.4667 29.336 71.3893 28.2907 70.6 26.968C69.8107 25.6453 69.416 24.1413 69.416 22.456C69.416 20.7493 69.8107 19.2453 70.6 17.944C71.3893 16.6213 72.4667 15.5867 73.832 14.84C75.1973 14.0933 76.7547 13.72 78.504 13.72C80.2747 13.72 81.8427 14.0933 83.208 14.84C84.5947 15.5867 85.672 16.6107 86.44 17.912C87.2293 19.2133 87.624 20.728 87.624 22.456C87.624 24.1413 87.2293 25.6453 86.44 26.968C85.672 28.2907 84.5947 29.336 83.208 30.104C81.8427 30.8507 80.2747 31.224 78.504 31.224ZM78.504 27.8C79.4853 27.8 80.36 27.5867 81.128 27.16C81.896 26.7333 82.4933 26.1147 82.92 25.304C83.368 24.4933 83.592 23.544 83.592 22.456C83.592 21.3467 83.368 20.3973 82.92 19.608C82.4933 18.7973 81.896 18.1787 81.128 17.752C80.36 17.3253 79.496 17.112 78.536 17.112C77.5547 17.112 76.68 17.3253 75.912 17.752C75.1653 18.1787 74.568 18.7973 74.12 19.608C73.672 20.3973 73.448 21.3467 73.448 22.456C73.448 23.544 73.672 24.4933 74.12 25.304C74.568 26.1147 75.1653 26.7333 75.912 27.16C76.68 27.5867 77.544 27.8 78.504 27.8ZM99.493 37.432C97.9143 37.432 96.3677 37.2187 94.853 36.792C93.3597 36.3867 92.133 35.7893 91.173 35L92.965 31.992C93.7117 32.6107 94.6503 33.1013 95.781 33.464C96.933 33.848 98.0957 34.04 99.269 34.04C101.146 34.04 102.522 33.6027 103.397 32.728C104.272 31.8747 104.709 30.584 104.709 28.856V25.816L105.029 21.944L104.901 18.072V13.912H108.709V28.408C108.709 31.5013 107.92 33.7733 106.341 35.224C104.762 36.696 102.48 37.432 99.493 37.432ZM98.981 30.232C97.3597 30.232 95.8877 29.8907 94.565 29.208C93.2637 28.504 92.229 27.5333 91.461 26.296C90.7143 25.0587 90.341 23.608 90.341 21.944C90.341 20.3013 90.7143 18.8613 91.461 17.624C92.229 16.3867 93.2637 15.4267 94.565 14.744C95.8877 14.0613 97.3597 13.72 98.981 13.72C100.432 13.72 101.733 14.008 102.885 14.584C104.037 15.16 104.954 16.056 105.637 17.272C106.341 18.488 106.693 20.0453 106.693 21.944C106.693 23.8427 106.341 25.4107 105.637 26.648C104.954 27.864 104.037 28.7707 102.885 29.368C101.733 29.944 100.432 30.232 98.981 30.232ZM99.589 26.84C100.592 26.84 101.488 26.6373 102.277 26.232C103.066 25.8053 103.674 25.2293 104.101 24.504C104.549 23.7573 104.773 22.904 104.773 21.944C104.773 20.984 104.549 20.1413 104.101 19.416C103.674 18.6693 103.066 18.104 102.277 17.72C101.488 17.3147 100.592 17.112 99.589 17.112C98.5863 17.112 97.6797 17.3147 96.869 17.72C96.0797 18.104 95.461 18.6693 95.013 19.416C94.5863 20.1413 94.373 20.984 94.373 21.944C94.373 22.904 94.5863 23.7573 95.013 24.504C95.461 25.2293 96.0797 25.8053 96.869 26.232C97.6797 26.6373 98.5863 26.84 99.589 26.84ZM114.268 31V13.912H118.268V31H114.268ZM116.284 11.096C115.537 11.096 114.918 10.8613 114.428 10.392C113.958 9.92267 113.724 9.35733 113.724 8.696C113.724 8.01333 113.958 7.448 114.428 7C114.918 6.53067 115.537 6.296 116.284 6.296C117.03 6.296 117.638 6.52 118.108 6.968C118.598 7.39467 118.844 7.93867 118.844 8.6C118.844 9.304 118.609 9.90133 118.14 10.392C117.67 10.8613 117.052 11.096 116.284 11.096ZM133.514 13.72C134.879 13.72 136.095 13.9867 137.162 14.52C138.25 15.0533 139.103 15.8747 139.722 16.984C140.34 18.072 140.65 19.48 140.65 21.208V31H136.65V21.72C136.65 20.2053 136.287 19.0747 135.562 18.328C134.858 17.5813 133.866 17.208 132.586 17.208C131.647 17.208 130.815 17.4 130.09 17.784C129.364 18.168 128.799 18.744 128.394 19.512C128.01 20.2587 127.818 21.208 127.818 22.36V31H123.818V13.912H127.626V18.52L126.954 17.112C127.551 16.024 128.415 15.192 129.546 14.616C130.698 14.0187 132.02 13.72 133.514 13.72Z" fill="#32C87D"/>
</svg>
