<svg width="160" height="50" viewBox="0 0 164 56" fill="none" xmlns="http://www.w3.org/2000/svg">
<path fill-rule="evenodd" clip-rule="evenodd" d="M24.2317 2.09997C26.4258 0.83354 29.1283 0.833538 31.3224 2.09997L48.6447 12.0984C50.8413 13.3662 52.1947 15.7108 52.1947 18.2482V38.236C52.1947 40.7735 50.8413 43.118 48.6447 44.3859L31.3224 54.3843C29.1283 55.6507 26.4258 55.6507 24.2317 54.3843L6.90938 44.3859C4.71276 43.118 3.35938 40.7735 3.35938 38.236V18.2482C3.35938 15.7108 4.71276 13.3662 6.90937 12.0984L24.2317 2.09997ZM49.748 29.3987C46.7607 29.3893 43.7662 28.1814 40.9896 26.4439C42.5153 28.1972 44.0752 29.9462 45.5206 31.5452C47.1553 33.3537 48.6374 34.9637 49.748 36.1609V29.3987ZM49.5596 39.5473L49.5009 39.4847C49.1838 39.1465 48.725 38.6558 48.1574 38.0446C47.0222 36.8224 45.4508 35.1177 43.706 33.1874C40.2241 29.3354 36.0238 24.5547 33.2274 20.9171C29.9145 16.6077 28.0532 14.1227 27.0573 12.771C26.9143 12.58 26.7851 12.4051 26.6702 12.2481L26.4158 12.3902C25.687 12.7971 24.7104 13.3423 23.7187 13.8956C21.7454 14.9965 19.6863 16.1439 19.434 16.2789C16.5905 17.8002 14.1849 17.3983 12.4318 16.3923C10.802 15.4571 9.80706 14.0494 9.45532 13.4551L8.1319 14.219C6.69273 15.0497 5.80603 16.5858 5.80603 18.2482V36.7048C7.10697 34.7281 9.73948 34.0859 11.8146 35.2848C12.5017 35.6817 13.0446 36.2324 13.425 36.8684C14.868 35.3195 17.2367 34.9116 19.1476 36.0156C20.7439 36.9377 21.5868 38.6641 21.4603 40.3879C22.3249 40.3269 23.2164 40.5147 24.0236 40.981C25.5129 41.8414 26.325 43.4247 26.2729 45.0322C27.1808 44.9462 28.1232 45.1317 28.9732 45.6227C29.4627 45.9055 29.8798 46.2655 30.2181 46.6785C30.2399 46.6982 30.2613 46.7188 30.282 46.7403L33.6307 50.2136L37.5227 47.9655L33.1351 43.0165C32.6867 42.5108 32.733 41.7371 33.2384 41.2885C33.7438 40.8398 34.517 40.8861 34.9654 41.3919L39.6853 46.7157L43.729 44.3765L39.2381 39.7252C38.7687 39.239 38.7821 38.464 39.268 37.9943C39.7539 37.5246 40.5283 37.538 40.9978 38.0242L45.9262 43.1287L47.4222 42.2653C48.4716 41.6595 49.2273 40.6787 49.5596 39.5473ZM31.454 51.482L30.5441 52.0072L30.6389 51.843C30.7923 51.5771 30.9159 51.3022 31.0106 51.0221L31.454 51.482ZM27.2305 52.8537L28.52 50.6189C29.1011 49.6119 28.7562 48.3243 27.7499 47.7429C26.7483 47.1642 25.4689 47.5032 24.8839 48.4991L23.397 51.0762L25.4543 52.2636C26.0095 52.5841 26.6144 52.7808 27.2305 52.8537ZM22.769 47.2682C22.7649 47.2753 22.7608 47.2823 22.7567 47.2894L21.2776 49.8529L17.7172 47.7978L19.9928 43.8539C20.5603 42.8703 21.8173 42.5333 22.8003 43.1012C23.7832 43.669 24.12 44.9267 23.5525 45.9103L22.769 47.2682ZM11.783 44.3727L15.5978 46.5745L18.7303 41.1456C19.3384 40.0917 18.9775 38.7442 17.9243 38.1357C16.8711 37.5273 15.5244 37.8884 14.9163 38.9422L11.783 44.3727ZM9.66665 43.1442L9.66365 43.1494L8.1319 42.2653C7.40242 41.8442 6.81488 41.2419 6.41281 40.5338L7.78384 38.1576C8.35137 37.1741 9.6083 36.8371 10.5913 37.4049C11.5743 37.9728 11.9111 39.2305 11.3435 40.2141L9.74202 42.9897C9.71294 43.0401 9.68785 43.0917 9.66665 43.1442ZM25.5521 3.99775C26.9896 3.16802 28.7602 3.16802 30.1977 3.99775L47.5201 13.9961C48.9592 14.8268 49.8459 16.3629 49.8459 18.0254V26.7277C45.8909 26.7118 41.5443 24.006 37.6504 20.5283C33.805 17.0937 30.6517 13.1361 29.119 11.0881C28.7412 10.5753 28.4928 10.2321 28.3398 10.0186C28.2631 9.91161 28.1678 9.77617 28.1351 9.72961C27.7773 9.20885 27.0821 9.04612 26.5306 9.35417C24.5378 10.466 18.6054 13.7756 18.3783 13.8971C16.3286 14.9937 14.8194 14.6612 13.7467 14.0457C12.6344 13.4074 11.9131 12.4072 11.6727 12.0089L25.5521 3.99775Z" fill="#32C87D"/>
<path d="M65.6217 22.8528H61V20.1293H73.586V22.8528H68.9642V34.5722H65.6217V22.8528Z" fill="#32C87D"/>
<path d="M78.0312 24.9367C78.4163 24.4002 78.9322 23.9945 79.5786 23.7194C80.2389 23.4443 80.9954 23.3067 81.8482 23.3067V26.2778C81.4906 26.2503 81.2499 26.2366 81.1261 26.2366C80.2045 26.2366 79.4824 26.4979 78.9597 27.0206C78.437 27.5295 78.1756 28.2998 78.1756 29.3315V34.5722H74.9569V23.4718H78.0312V24.9367Z" fill="#32C87D"/>
<path d="M88.2202 23.3067C89.9396 23.3067 91.2601 23.7194 92.1817 24.5447C93.1033 25.3562 93.5641 26.5873 93.5641 28.2379V34.5722H90.5517V33.1898C89.9465 34.2214 88.8186 34.7372 87.1679 34.7372C86.3151 34.7372 85.5723 34.5928 84.9396 34.304C84.3206 34.0151 83.8461 33.6162 83.516 33.1073C83.1858 32.5983 83.0208 32.0206 83.0208 31.3741C83.0208 30.3425 83.4059 29.5309 84.1762 28.9394C84.9602 28.348 86.1638 28.0522 87.7869 28.0522H90.3454C90.3454 27.3507 90.1322 26.8143 89.7058 26.4429C89.2794 26.0577 88.6397 25.8652 87.7869 25.8652C87.1955 25.8652 86.6109 25.9615 86.0331 26.154C85.4692 26.3328 84.9878 26.5804 84.5889 26.8968L83.4334 24.6478C84.0386 24.2214 84.7608 23.8913 85.5999 23.6575C86.4527 23.4236 87.3261 23.3067 88.2202 23.3067ZM87.9726 32.5708C88.5228 32.5708 89.0111 32.447 89.4375 32.1994C89.864 31.9381 90.1666 31.5598 90.3454 31.0646V29.9298H88.1377C86.8172 29.9298 86.1569 30.3631 86.1569 31.2297C86.1569 31.6423 86.3151 31.9725 86.6315 32.22C86.9616 32.4539 87.4087 32.5708 87.9726 32.5708Z" fill="#32C87D"/>
<path d="M103.265 23.3067C104.641 23.3067 105.748 23.7194 106.587 24.5447C107.44 25.37 107.866 26.5942 107.866 28.2173V34.5722H104.648V28.7125C104.648 27.8322 104.455 27.1788 104.07 26.7524C103.685 26.3122 103.128 26.0921 102.399 26.0921C101.587 26.0921 100.941 26.3466 100.459 26.8555C99.9779 27.3507 99.7371 28.0935 99.7371 29.0839V34.5722H96.5184V23.4718H99.5927V24.7716C100.019 24.304 100.549 23.9463 101.181 23.6987C101.814 23.4374 102.509 23.3067 103.265 23.3067Z" fill="#32C87D"/>
<path d="M119.966 32.0963V34.5722H110.062V32.6327L115.715 25.9477H110.206V23.4718H119.78V25.4112L114.127 32.0963H119.966Z" fill="#32C87D"/>
<path d="M126.547 23.3067C128.266 23.3067 129.587 23.7194 130.508 24.5447C131.43 25.3562 131.891 26.5873 131.891 28.2379V34.5722H128.878V33.1898C128.273 34.2214 127.145 34.7372 125.495 34.7372C124.642 34.7372 123.899 34.5928 123.266 34.304C122.647 34.0151 122.173 33.6162 121.843 33.1073C121.512 32.5983 121.347 32.0206 121.347 31.3741C121.347 30.3425 121.732 29.5309 122.503 28.9394C123.287 28.348 124.49 28.0522 126.114 28.0522H128.672C128.672 27.3507 128.459 26.8143 128.032 26.4429C127.606 26.0577 126.966 25.8652 126.114 25.8652C125.522 25.8652 124.937 25.9615 124.36 26.154C123.796 26.3328 123.314 26.5804 122.915 26.8968L121.76 24.6478C122.365 24.2214 123.087 23.8913 123.926 23.6575C124.779 23.4236 125.653 23.3067 126.547 23.3067ZM126.299 32.5708C126.849 32.5708 127.338 32.447 127.764 32.1994C128.191 31.9381 128.493 31.5598 128.672 31.0646V29.9298H126.464C125.144 29.9298 124.484 30.3631 124.484 31.2297C124.484 31.6423 124.642 31.9725 124.958 32.22C125.288 32.4539 125.735 32.5708 126.299 32.5708Z" fill="#32C87D"/>
<path d="M139.611 30.2187L138.064 31.7455V34.5722H134.845V19.2627H138.064V27.9284L142.768 23.4718H146.606L141.984 28.176L147.018 34.5722H143.119L139.611 30.2187Z" fill="#32C87D"/>
<path d="M155.667 34.0357C155.35 34.2696 154.958 34.4484 154.491 34.5722C154.037 34.6822 153.555 34.7372 153.046 34.7372C151.726 34.7372 150.701 34.4002 149.972 33.7262C149.257 33.0522 148.899 32.0619 148.899 30.7551V26.1953H147.187V23.7194H148.899V21.0165H152.118V23.7194H154.883V26.1953H152.118V30.7139C152.118 31.1815 152.235 31.546 152.469 31.8074C152.716 32.055 153.06 32.1788 153.5 32.1788C154.009 32.1788 154.442 32.0412 154.8 31.7661L155.667 34.0357Z" fill="#32C87D"/>
</svg>


